<svg width="95" height="96" viewBox="0 0 95 96" fill="none" xmlns="http://www.w3.org/2000/svg">
<g clip-path="url(#clip0_4907_32174)">
<path d="M38.8636 0C37.7184 0 36.62 0.459739 35.8102 1.27808C35.0004 2.09642 34.5455 3.20633 34.5455 4.36364V16C34.5394 21.0131 32.566 25.8191 29.0581 29.3639C25.5502 32.9088 20.7942 34.9029 15.8333 34.9091H4.31818C3.17293 34.9091 2.07458 35.3688 1.26477 36.1872C0.45495 37.0055 0 38.1154 0 39.2727C0 40.43 0.45495 41.5399 1.26477 42.3583C2.07458 43.1766 3.17293 43.6364 4.31818 43.6364H15.8333C23.0841 43.6282 30.0356 40.7138 35.1627 35.5328C40.2897 30.3517 43.1737 23.3271 43.1818 16V4.36364C43.1818 3.20633 42.7269 2.09642 41.917 1.27808C41.1072 0.459739 40.0089 0 38.8636 0V0Z" fill="#00C2E7" fill-opacity="1"/>
<path d="M4.31818 26.1818H15.8333C18.5043 26.1777 21.0648 25.1037 22.9535 23.1951C24.8422 21.2865 25.905 18.6991 25.9091 16V4.36364C25.9091 3.20633 25.4541 2.09642 24.6443 1.27808C23.8345 0.459739 22.7362 0 21.5909 0C20.4457 0 19.3473 0.459739 18.5375 1.27808C17.7277 2.09642 17.2727 3.20633 17.2727 4.36364V16C17.2727 16.3858 17.1211 16.7557 16.8511 17.0285C16.5812 17.3013 16.2151 17.4545 15.8333 17.4545H4.31818C3.17293 17.4545 2.07458 17.9143 1.26477 18.7326C0.45495 19.551 0 20.6609 0 21.8182C0 22.9755 0.45495 24.0854 1.26477 24.9037C2.07458 25.7221 3.17293 26.1818 4.31818 26.1818Z" fill="#00C2E7" fill-opacity="1"/>
<path d="M90.68 34.9091H79.1649C74.204 34.9029 69.448 32.9088 65.9402 29.3639C62.4323 25.8191 60.4589 21.0131 60.4528 16V4.36364C60.4528 3.20633 59.9978 2.09642 59.188 1.27808C58.3782 0.459739 57.2798 0 56.1346 0C54.9893 0 53.891 0.459739 53.0812 1.27808C52.2714 2.09642 51.8164 3.20633 51.8164 4.36364V16C51.8245 23.3271 54.7085 30.3517 59.8356 35.5328C64.9626 40.7138 71.9141 43.6282 79.1649 43.6364H90.68C91.8253 43.6364 92.9236 43.1766 93.7335 42.3583C94.5433 41.5399 94.9982 40.43 94.9982 39.2727C94.9982 38.1154 94.5433 37.0055 93.7335 36.1872C92.9236 35.3688 91.8253 34.9091 90.68 34.9091Z" fill="#00C2E7" fill-opacity="1"/>
<path d="M79.1656 26.1818H90.6808C91.826 26.1818 92.9244 25.7221 93.7342 24.9037C94.544 24.0854 94.9989 22.9755 94.9989 21.8182C94.9989 20.6609 94.544 19.551 93.7342 18.7326C92.9244 17.9143 91.826 17.4545 90.6808 17.4545H79.1656C78.7838 17.4545 78.4177 17.3013 78.1478 17.0285C77.8779 16.7557 77.7262 16.3858 77.7262 16V4.36364C77.7262 3.20633 77.2713 2.09642 76.4614 1.27808C75.6516 0.459739 74.5533 0 73.408 0C72.2628 0 71.1644 0.459739 70.3546 1.27808C69.5448 2.09642 69.0898 3.20633 69.0898 4.36364V16C69.0939 18.6991 70.1568 21.2865 72.0455 23.1951C73.9341 25.1037 76.4946 26.1777 79.1656 26.1818Z" fill="#00C2E7" fill-opacity="1"/>
<path d="M15.8333 52.3633H4.31818C3.17293 52.3633 2.07458 52.823 1.26477 53.6414C0.45495 54.4597 0 55.5696 0 56.7269C0 57.8842 0.45495 58.9941 1.26477 59.8125C2.07458 60.6308 3.17293 61.0906 4.31818 61.0906H15.8333C20.7942 61.0967 25.5502 63.0909 29.0581 66.6357C32.566 70.1805 34.5394 74.9865 34.5455 79.9996V91.636C34.5455 92.7933 35.0004 93.9032 35.8102 94.7216C36.62 95.5399 37.7184 95.9996 38.8636 95.9996C40.0089 95.9996 41.1072 95.5399 41.917 94.7216C42.7269 93.9032 43.1818 92.7933 43.1818 91.636V79.9996C43.1737 72.6725 40.2897 65.6479 35.1627 60.4669C30.0356 55.2858 23.0841 52.3715 15.8333 52.3633Z" fill="#00C2E7" fill-opacity="1"/>
<path d="M15.8333 69.8164H4.31818C3.17293 69.8164 2.07458 70.2761 1.26477 71.0945C0.45495 71.9128 0 73.0227 0 74.18C0 75.3374 0.45495 76.4473 1.26477 77.2656C2.07458 78.0839 3.17293 78.5437 4.31818 78.5437H15.8333C16.2151 78.5437 16.5812 78.6969 16.8511 78.9697C17.1211 79.2425 17.2727 79.6125 17.2727 79.9982V91.6346C17.2727 92.7919 17.7277 93.9018 18.5375 94.7201C19.3473 95.5385 20.4457 95.9982 21.5909 95.9982C22.7362 95.9982 23.8345 95.5385 24.6443 94.7201C25.4541 93.9018 25.9091 92.7919 25.9091 91.6346V79.9982C25.905 77.2991 24.8422 74.7117 22.9535 72.8031C21.0648 70.8946 18.5043 69.8205 15.8333 69.8164Z" fill="#00C2E7" fill-opacity="1"/>
<path d="M90.68 52.3633H79.1649C71.9141 52.3715 64.9626 55.2858 59.8356 60.4669C54.7085 65.6479 51.8245 72.6725 51.8164 79.9996V91.636C51.8164 92.7933 52.2714 93.9032 53.0812 94.7216C53.891 95.5399 54.9893 95.9996 56.1346 95.9996C57.2798 95.9996 58.3782 95.5399 59.188 94.7216C59.9978 93.9032 60.4528 92.7933 60.4528 91.636V79.9996C60.4589 74.9865 62.4323 70.1805 65.9402 66.6357C69.448 63.0909 74.204 61.0967 79.1649 61.0906H90.68C91.8253 61.0906 92.9236 60.6308 93.7335 59.8125C94.5433 58.9941 94.9982 57.8842 94.9982 56.7269C94.9982 55.5696 94.5433 54.4597 93.7335 53.6414C92.9236 52.823 91.8253 52.3633 90.68 52.3633Z" fill="#00C2E7" fill-opacity="1"/>
<path d="M90.6808 69.8164H79.1656C76.4946 69.8205 73.9341 70.8946 72.0455 72.8031C70.1568 74.7117 69.0939 77.2991 69.0898 79.9982V91.6346C69.0898 92.7919 69.5448 93.9018 70.3546 94.7201C71.1644 95.5385 72.2628 95.9982 73.408 95.9982C74.5533 95.9982 75.6516 95.5385 76.4614 94.7201C77.2713 93.9018 77.7262 92.7919 77.7262 91.6346V79.9982C77.7262 79.6125 77.8779 79.2425 78.1478 78.9697C78.4177 78.6969 78.7838 78.5437 79.1656 78.5437H90.6808C91.826 78.5437 92.9244 78.0839 93.7342 77.2656C94.544 76.4473 94.9989 75.3374 94.9989 74.18C94.9989 73.0227 94.544 71.9128 93.7342 71.0945C92.9244 70.2761 91.826 69.8164 90.6808 69.8164Z" fill="#00C2E7" fill-opacity="1"/>
</g>
<defs>
<clipPath id="clip0_4907_32174">
<rect width="95" height="96" fill="white"/>
</clipPath>
</defs>
</svg>
